<svg
        xmlns="http://www.w3.org/2000/svg"
        width="16"
        height="16"
        className="pb907-a"
>
    <path
            fill="var(--tgui--link_color)"
            d="M8.76 5.5C8.462 7.079 7.287 8 5.5 8s-2.963-.921-3.26-2.5h-.907a.833.833 0 1 1 0-1.667h.908c.296-1.578 1.47-2.5 3.259-2.5s2.963.922 3.26 2.5h5.907a.833.833 0 0 1 0 1.667zm1.74 9.167c1.789 0 2.963-.921 3.26-2.5h.907a.833.833 0 0 0 0-1.667h-.908C13.463 8.921 12.29 8 10.5 8c-2.083 0-3.333 1.25-3.333 3.333s1.25 3.334 3.333 3.334m-10-3.334c0-.46.373-.833.833-.833H5.5a.833.833 0 1 1 0 1.667H1.333a.833.833 0 0 1-.833-.834"
    ></path>
</svg>